<mxfile host="app.diagrams.net" modified="2023-01-07T15:29:58.088Z" agent="5.0 (Windows NT 10.0; Win64; x64) AppleWebKit/537.36 (KHTML, like Gecko) Chrome/108.0.0.0 Safari/537.36" version="20.8.3" etag="irZEXlYi2EcswzxErrL9" type="github">
  <diagram id="UU4DDpN2vWzqk-H-t5DW" name="Страница 1">
    <mxGraphModel dx="1500" dy="830" grid="1" gridSize="10" guides="1" tooltips="1" connect="1" arrows="1" fold="1" page="1" pageScale="1" pageWidth="827" pageHeight="1169" math="0" shadow="0">
      <root>
        <mxCell id="0" />
        <mxCell id="1" parent="0" />
        <mxCell id="cD0iJM-iF6CoWFcvUV4E-1" value="&lt;div style=&quot;text-align: center;&quot;&gt;&lt;b style=&quot;background-color: initial;&quot;&gt;&lt;font style=&quot;font-size: 16px;&quot;&gt;Server&lt;/font&gt;&lt;/b&gt;&lt;/div&gt;&lt;b&gt;&lt;font style=&quot;font-size: 16px;&quot;&gt;&lt;ul&gt;&lt;li&gt;&lt;b&gt;&lt;font style=&quot;font-size: 16px;&quot;&gt;Users&lt;/font&gt;&lt;/b&gt;&lt;/li&gt;&lt;li&gt;&lt;b&gt;&lt;font style=&quot;font-size: 16px;&quot;&gt;Dialogs&lt;/font&gt;&lt;/b&gt;&lt;/li&gt;&lt;li&gt;&lt;b&gt;&lt;font style=&quot;font-size: 16px;&quot;&gt;Messages&lt;/font&gt;&lt;/b&gt;&lt;/li&gt;&lt;/ul&gt;&lt;/font&gt;&lt;/b&gt;" style="html=1;align=left;" vertex="1" parent="1">
          <mxGeometry x="20" y="30" width="190" height="170" as="geometry" />
        </mxCell>
        <mxCell id="cD0iJM-iF6CoWFcvUV4E-2" value="&lt;div style=&quot;text-align: center;&quot;&gt;&lt;span style=&quot;font-size: 16px;&quot;&gt;&lt;b&gt;BLL&lt;/b&gt;&lt;/span&gt;&lt;/div&gt;&lt;b&gt;&lt;font style=&quot;font-size: 16px;&quot;&gt;&lt;ul&gt;&lt;li&gt;addDialog&lt;/li&gt;&lt;li&gt;addMessage&lt;/li&gt;&lt;li&gt;&lt;br&gt;&lt;/li&gt;&lt;/ul&gt;&lt;/font&gt;&lt;/b&gt;" style="html=1;align=left;" vertex="1" parent="1">
          <mxGeometry x="300" y="30" width="190" height="170" as="geometry" />
        </mxCell>
      </root>
    </mxGraphModel>
  </diagram>
</mxfile>
